<svg width="165" height="36" viewBox="0 0 165 36" fill="none" xmlns="http://www.w3.org/2000/svg">
<g filter="url(#filter0_di_51_2008)">
<circle cx="121.961" cy="16.4708" r="5" fill="#9C3729"/>
</g>
<path d="M84.81 20.4708L84.04 18.4908H80.9L80.15 20.4708H79.1L81.92 13.3808H83.05L85.87 20.4708H84.81ZM82.46 14.4008L81.25 17.5808H83.69L82.46 14.4008ZM89.6888 20.6208C87.8588 20.6208 86.1688 19.2908 86.1688 16.9208C86.1688 14.5508 87.9288 13.2308 89.6888 13.2308C91.3088 13.2308 92.4488 14.1108 92.8088 15.4808L91.8988 15.8008C91.6288 14.7308 90.8488 14.1308 89.6888 14.1308C88.3988 14.1308 87.1688 15.0708 87.1688 16.9208C87.1688 18.7708 88.3988 19.7208 89.6888 19.7208C90.8988 19.7208 91.6588 18.9908 91.9488 18.0208L92.8188 18.3408C92.4388 19.6708 91.3188 20.6208 89.6888 20.6208ZM98.9899 14.2908H96.6199V20.4708H95.6399V14.2908H93.2699V13.3808H98.9899V14.2908ZM100.988 20.4708H99.9879V13.3808H100.988V20.4708ZM105.171 19.2108L107.331 13.3808H108.361L105.631 20.4708H104.661L101.991 13.3808H103.031L105.171 19.2108ZM113.673 20.4708H109.363V13.3808H113.673V14.2908H110.343V16.4708H113.363V17.3908H110.343V19.5608H113.673V20.4708Z" fill="black"/>
<rect x="74.5278" y="8.7301" width="55.9331" height="15.942" rx="2.5" stroke="black"/>
<g filter="url(#filter1_f_51_2008)">
<ellipse cx="147.082" cy="18.1834" rx="12.7713" ry="12.4521" fill="black" fill-opacity="0.5"/>
</g>
<ellipse cx="146.6" cy="16.7371" rx="12.4184" ry="12.108" fill="black"/>
<ellipse cx="146.6" cy="16.255" rx="12.4184" ry="12.108" fill="black"/>
<ellipse cx="146.6" cy="16.2549" rx="12.1544" ry="11.8506" fill="url(#paint0_linear_51_2008)"/>
<path d="M157.962 16.255C157.962 22.3542 152.887 27.3201 146.6 27.3201C140.313 27.3201 135.238 22.3542 135.238 16.255C135.238 10.1558 140.313 5.18992 146.6 5.18992C152.887 5.18992 157.962 10.1558 157.962 16.255Z" fill="#BEBEBE" stroke="url(#paint1_linear_51_2008)"/>
<defs>
<filter id="filter0_di_51_2008" x="116.961" y="11.4708" width="10.25" height="10.25" filterUnits="userSpaceOnUse" color-interpolation-filters="sRGB">
<feFlood flood-opacity="0" result="BackgroundImageFix"/>
<feColorMatrix in="SourceAlpha" type="matrix" values="0 0 0 0 0 0 0 0 0 0 0 0 0 0 0 0 0 0 127 0" result="hardAlpha"/>
<feOffset dx="0.25" dy="0.25"/>
<feComposite in2="hardAlpha" operator="out"/>
<feColorMatrix type="matrix" values="0 0 0 0 1 0 0 0 0 1 0 0 0 0 1 0 0 0 0.25 0"/>
<feBlend mode="normal" in2="BackgroundImageFix" result="effect1_dropShadow_51_2008"/>
<feBlend mode="normal" in="SourceGraphic" in2="effect1_dropShadow_51_2008" result="shape"/>
<feColorMatrix in="SourceAlpha" type="matrix" values="0 0 0 0 0 0 0 0 0 0 0 0 0 0 0 0 0 0 127 0" result="hardAlpha"/>
<feOffset dx="0.3" dy="0.3"/>
<feComposite in2="hardAlpha" operator="arithmetic" k2="-1" k3="1"/>
<feColorMatrix type="matrix" values="0 0 0 0 0 0 0 0 0 0 0 0 0 0 0 0 0 0 0.75 0"/>
<feBlend mode="normal" in2="shape" result="effect2_innerShadow_51_2008"/>
</filter>
<filter id="filter1_f_51_2008" x="129.31" y="0.731392" width="35.5427" height="34.9041" filterUnits="userSpaceOnUse" color-interpolation-filters="sRGB">
<feFlood flood-opacity="0" result="BackgroundImageFix"/>
<feBlend mode="normal" in="SourceGraphic" in2="BackgroundImageFix" result="shape"/>
<feGaussianBlur stdDeviation="2.5" result="effect1_foregroundBlur_51_2008"/>
</filter>
<linearGradient id="paint0_linear_51_2008" x1="138.737" y1="6.95048" x2="156.501" y2="26.2645" gradientUnits="userSpaceOnUse">
<stop stop-color="#7A7A7A"/>
<stop offset="1" stop-color="#776025" stop-opacity="0"/>
</linearGradient>
<linearGradient id="paint1_linear_51_2008" x1="141.291" y1="6.37932" x2="154.043" y2="25.1226" gradientUnits="userSpaceOnUse">
<stop stop-color="white" stop-opacity="0.57"/>
<stop offset="1" stop-color="white" stop-opacity="0"/>
</linearGradient>
</defs>
</svg>

