<svg width="312" height="48" viewBox="0 0 312 48" fill="none" xmlns="http://www.w3.org/2000/svg">
<path fill-rule="evenodd" clip-rule="evenodd" d="M232.028 1H80.0278C78.371 1 77.0278 2.34315 77.0278 4V44C77.0278 45.6569 78.371 47 80.0278 47H232.028C233.685 47 235.028 45.6569 235.028 44V4C235.028 2.34314 233.685 1 232.028 1ZM80.0278 0C77.8187 0 76.0278 1.79086 76.0278 4V24L0.972656 24V25L76.0278 25V44C76.0278 46.2091 77.8187 48 80.0278 48H232.028C234.237 48 236.028 46.2091 236.028 44V25L311.028 25V24L236.028 24V4C236.028 1.79086 234.237 0 232.028 0H80.0278Z" fill="black"/>
</svg>

